<svg xmlns="http://www.w3.org/2000/svg">
    <symbol id="facebook" viewBox="0 0 20 20">
        <path d="M11.4,19.5v-8.7h2.9l0.5-3.3h-3.3V5.3c0-1,0.3-1.7,1.7-1.7h1.8v-3c-0.3,0-1.4-0.1-2.6-0.1C9.8,0.5,8,2.1,8,5
            v2.5h-3v3.3h2.9v8.7H11.4z"/>
    </symbol>
    <symbol id="instagram" viewBox="0 0 20 20">
        <path d="M17.6,0.5H2.4c-1,0-1.9,0.9-1.9,1.9v15.2c0,1,0.9,1.9,1.9,1.9h15.2c1,0,1.9-0.9,1.9-1.9V2.4
	        C19.5,1.4,18.6,0.5,17.6,0.5z M10,6.2c2.1,0,3.8,1.7,3.8,3.8s-1.7,3.8-3.8,3.8S6.2,12.1,6.2,10S7.9,6.2,10,6.2z M2.9,17.6
	        c-0.3,0-0.5-0.2-0.5-0.5V9.1h2C4.3,9.3,4.3,9.7,4.3,10c0,3.1,2.6,5.7,5.7,5.7s5.7-2.6,5.7-5.7c0-0.3,0-0.7-0.1-0.9h2v8.1
	        c0,0.3-0.2,0.5-0.5,0.5H2.9z M17.6,4.8c0,0.3-0.2,0.5-0.5,0.5h-1.9c-0.3,0-0.5-0.2-0.5-0.5V2.9c0-0.3,0.2-0.5,0.5-0.5h1.9
	        c0.3,0,0.5,0.2,0.5,0.5V4.8z"/>
    </symbol>
    <symbol id="linkedin" viewBox="0 0 20 20">
        <path d="M19.1,12v6.7h-3.9v-6.3c0-1.6-0.6-2.7-2-2.7c-1.1,0-1.7,0.7-2,1.4c-0.1,0.3-0.1,0.6-0.1,1v6.5H7.2
	        c0,0,0.1-10.6,0-11.7h3.9v1.7c0,0,0,0,0,0h0v0c0.5-0.8,1.4-1.9,3.5-1.9C17.2,6.7,19.1,8.4,19.1,12L19.1,12z M3.1,1.3
	        c-1.3,0-2.2,0.9-2.2,2c0,1.1,0.8,2,2.2,2h0c1.4,0,2.2-0.9,2.2-2C5.3,2.2,4.4,1.3,3.1,1.3z M1.1,18.7H5V7H1.1L1.1,18.7L1.1,18.7z"/>
    </symbol>
</svg>