<svg xmlns="http://www.w3.org/2000/svg" viewBox="0 0 20 20">
<path d="M17.6,0.5H2.4c-1,0-1.9,0.9-1.9,1.9v15.2c0,1,0.9,1.9,1.9,1.9h15.2c1,0,1.9-0.9,1.9-1.9V2.4
	C19.5,1.4,18.6,0.5,17.6,0.5z M10,6.2c2.1,0,3.8,1.7,3.8,3.8s-1.7,3.8-3.8,3.8S6.2,12.1,6.2,10S7.9,6.2,10,6.2z M2.9,17.6
	c-0.3,0-0.5-0.2-0.5-0.5V9.1h2C4.3,9.3,4.3,9.7,4.3,10c0,3.1,2.6,5.7,5.7,5.7s5.7-2.6,5.7-5.7c0-0.3,0-0.7-0.1-0.9h2v8.1
	c0,0.3-0.2,0.5-0.5,0.5H2.9z M17.6,4.8c0,0.3-0.2,0.5-0.5,0.5h-1.9c-0.3,0-0.5-0.2-0.5-0.5V2.9c0-0.3,0.2-0.5,0.5-0.5h1.9
	c0.3,0,0.5,0.2,0.5,0.5V4.8z"/>
</svg>
